<svg width="76" height="76" viewBox="0 0 76 76" fill="none" xmlns="http://www.w3.org/2000/svg">
<path d="M76 1.80952V19.9048C76 20.3847 75.8094 20.8449 75.47 21.1843C75.1307 21.5236 74.6704 21.7143 74.1905 21.7143C73.7106 21.7143 73.2503 21.5236 72.9109 21.1843C72.5716 20.8449 72.381 20.3847 72.381 19.9048V3.61905H56.0952C55.6153 3.61905 55.1551 3.4284 54.8157 3.08905C54.4764 2.7497 54.2857 2.28944 54.2857 1.80952C54.2857 1.32961 54.4764 0.869349 54.8157 0.529998C55.1551 0.190646 55.6153 0 56.0952 0H74.1905C74.6704 0 75.1307 0.190646 75.47 0.529998C75.8094 0.869349 76 1.32961 76 1.80952ZM19.9048 72.381H3.61905V56.0952C3.61905 55.6153 3.4284 55.1551 3.08905 54.8157C2.7497 54.4764 2.28944 54.2857 1.80952 54.2857C1.32961 54.2857 0.869349 54.4764 0.529998 54.8157C0.190646 55.1551 0 55.6153 0 56.0952V74.1905C0 74.6704 0.190646 75.1307 0.529998 75.47C0.869349 75.8094 1.32961 76 1.80952 76H19.9048C20.3847 76 20.8449 75.8094 21.1843 75.47C21.5236 75.1307 21.7143 74.6704 21.7143 74.1905C21.7143 73.7106 21.5236 73.2503 21.1843 72.9109C20.8449 72.5716 20.3847 72.381 19.9048 72.381ZM74.1905 54.2857C73.7106 54.2857 73.2503 54.4764 72.9109 54.8157C72.5716 55.1551 72.381 55.6153 72.381 56.0952V72.381H56.0952C55.6153 72.381 55.1551 72.5716 54.8157 72.9109C54.4764 73.2503 54.2857 73.7106 54.2857 74.1905C54.2857 74.6704 54.4764 75.1307 54.8157 75.47C55.1551 75.8094 55.6153 76 56.0952 76H74.1905C74.6704 76 75.1307 75.8094 75.47 75.47C75.8094 75.1307 76 74.6704 76 74.1905V56.0952C76 55.6153 75.8094 55.1551 75.47 54.8157C75.1307 54.4764 74.6704 54.2857 74.1905 54.2857ZM19.9048 0H1.80952C1.32961 0 0.869349 0.190646 0.529998 0.529998C0.190646 0.869349 0 1.32961 0 1.80952V19.9048C0 20.3847 0.190646 20.8449 0.529998 21.1843C0.869349 21.5236 1.32961 21.7143 1.80952 21.7143C2.28944 21.7143 2.7497 21.5236 3.08905 21.1843C3.4284 20.8449 3.61905 20.3847 3.61905 19.9048V3.61905H19.9048C20.3847 3.61905 20.8449 3.4284 21.1843 3.08905C21.5236 2.7497 21.7143 2.28944 21.7143 1.80952C21.7143 1.32961 21.5236 0.869349 21.1843 0.529998C20.8449 0.190646 20.3847 0 19.9048 0Z" fill="#6D31ED" fill-opacity="0.5"/>
<path opacity="0.15" d="M18.625 65.7705C18.625 66.2844 20.6663 66.7772 24.2998 67.1405C27.9333 67.5039 32.8614 67.708 38 67.708C43.1386 67.708 48.0667 67.5039 51.7002 67.1405C55.3337 66.7772 57.375 66.2844 57.375 65.7705C57.375 65.2567 55.3337 64.7638 51.7002 64.4005C48.0667 64.0371 43.1386 63.833 38 63.833C32.8614 63.833 27.9333 64.0371 24.2998 64.4005C20.6663 64.7638 18.625 65.2567 18.625 65.7705Z" fill="#45413C"/>
<path d="M53.3453 65.1253H22.6553V62.6712C22.6553 60.656 23.0522 58.6606 23.8233 56.7989C24.5945 54.9372 25.7248 53.2455 27.1497 51.8206C28.5746 50.3957 30.2663 49.2654 32.128 48.4942C33.9897 47.7231 35.9851 47.3262 38.0003 47.3262C40.0154 47.3262 42.0108 47.7231 43.8726 48.4942C45.7343 49.2654 47.4259 50.3957 48.8508 51.8206C50.2757 53.2455 51.406 54.9372 52.1772 56.7989C52.9484 58.6606 53.3453 60.656 53.3453 62.6712V65.1253Z" fill="#00B8F0"/>
<path d="M38.0003 47.3262C33.9305 47.3262 30.0275 48.9429 27.1497 51.8206C24.272 54.6984 22.6553 58.6014 22.6553 62.6712V65.1253H22.8749C23.4853 61.5559 25.3384 58.3174 28.1064 55.9825C30.8744 53.6477 34.379 52.367 38.0003 52.367C41.6215 52.367 45.1261 53.6477 47.8941 55.9825C50.6622 58.3174 52.5153 61.5559 53.1257 65.1253H53.3453V62.6712C53.3453 58.6014 51.7286 54.6984 48.8508 51.8206C45.9731 48.9429 42.07 47.3262 38.0003 47.3262Z" fill="#009FD9"/>
<path d="M53.3453 65.1253H22.6553V62.6712C22.6553 60.656 23.0522 58.6606 23.8233 56.7989C24.5945 54.9372 25.7248 53.2455 27.1497 51.8206C28.5746 50.3957 30.2663 49.2654 32.128 48.4942C33.9897 47.7231 35.9851 47.3262 38.0003 47.3262C40.0154 47.3262 42.0108 47.7231 43.8726 48.4942C45.7343 49.2654 47.4259 50.3957 48.8508 51.8206C50.2757 53.2455 51.406 54.9372 52.1772 56.7989C52.9484 58.6606 53.3453 60.656 53.3453 62.6712V65.1253Z" stroke="#45413C" stroke-width="0.5" stroke-linecap="round" stroke-linejoin="round"/>
<path d="M37.9996 42.0947C37.5677 42.0947 37.14 42.18 36.7411 42.3457C36.3422 42.5114 35.98 42.7542 35.6751 43.0602C35.3703 43.3662 35.1289 43.7294 34.9648 44.129C34.8007 44.5285 34.7171 44.9565 34.7188 45.3885V49.0697C34.7188 49.9399 35.0644 50.7744 35.6797 51.3896C36.295 52.0049 37.1295 52.3506 37.9996 52.3506C38.8697 52.3506 39.7042 52.0049 40.3195 51.3896C40.9348 50.7744 41.2804 49.9399 41.2804 49.0697V45.3885C41.2821 44.9565 41.1985 44.5285 41.0344 44.129C40.8703 43.7294 40.6289 43.3662 40.3241 43.0602C40.0193 42.7542 39.657 42.5114 39.2581 42.3457C38.8592 42.18 38.4315 42.0947 37.9996 42.0947Z" fill="#FFCEBF"/>
<path d="M37.9996 42.0947C37.1295 42.0947 36.295 42.4404 35.6797 43.0557C35.0644 43.6709 34.7188 44.5054 34.7188 45.3756V46.1506C34.7187 47.0207 35.0644 47.8552 35.6797 48.4705C36.295 49.0857 37.1295 49.4314 37.9996 49.4314C38.8697 49.4314 39.7042 49.0857 40.3195 48.4705C40.9348 47.8552 41.2804 47.0207 41.2804 46.1506V45.3885C41.2821 44.9565 41.1985 44.5285 41.0344 44.129C40.8703 43.7294 40.6289 43.3662 40.3241 43.0602C40.0192 42.7542 39.657 42.5114 39.2581 42.3457C38.8592 42.18 38.4315 42.0947 37.9996 42.0947Z" fill="#FFB59E"/>
<path d="M29.0361 65.1251V62.0122M46.9645 65.1251V62.0122M38.0003 42.0947C37.5684 42.0947 37.1407 42.18 36.7418 42.3457C36.3429 42.5114 35.9806 42.7542 35.6758 43.0602C35.371 43.3662 35.1296 43.7294 34.9655 44.129C34.8014 44.5285 34.7178 44.9565 34.7195 45.3885V49.0697C34.7195 49.9399 35.0651 50.7743 35.6804 51.3896C36.2957 52.0049 37.1302 52.3506 38.0003 52.3506C38.8704 52.3506 39.7049 52.0049 40.3202 51.3896C40.9355 50.7743 41.2811 49.9399 41.2811 49.0697V45.3885C41.2828 44.9565 41.1992 44.5285 41.0351 44.129C40.871 43.7294 40.6296 43.3662 40.3248 43.0602C40.02 42.7542 39.6577 42.5114 39.2588 42.3457C38.8599 42.18 38.4322 42.0947 38.0003 42.0947Z" stroke="#45413C" stroke-width="0.5" stroke-linecap="round" stroke-linejoin="round"/>
<path d="M37.9996 15.9258C36.9364 15.9264 35.8775 16.0609 34.8479 16.3262C32.4454 16.8687 29.3196 17.7729 26.4909 17.2304C26.3806 17.9589 26.42 18.7023 26.6065 19.4152C26.7931 20.128 27.1229 20.7954 27.5759 21.3766C26.1014 23.5003 25.3126 26.0246 25.3154 28.6099V35.2491H50.6838V28.6099C50.6838 25.2459 49.3474 22.0196 46.9687 19.6409C44.5899 17.2621 41.3637 15.9258 37.9996 15.9258Z" fill="#A86C4D"/>
<path d="M37.9996 15.9258C36.9364 15.9264 35.8775 16.0609 34.848 16.3262C32.4455 16.8687 29.3196 17.7729 26.4909 17.2304C26.316 18.5853 26.6272 19.9583 27.3692 21.1054C29.8993 21.1448 32.4209 20.8007 34.848 20.0849C36.7214 19.6018 38.6806 19.554 40.5754 19.9453C42.4702 20.3366 44.2502 21.1566 45.7789 22.3425C47.3077 23.5283 48.5446 25.0485 49.3948 26.7864C50.245 28.5244 50.6859 30.4339 50.6838 32.3687V28.6099C50.6838 25.2459 49.3474 22.0196 46.9687 19.6409C44.5899 17.2621 41.3637 15.9258 37.9996 15.9258Z" fill="#DE926A"/>
<path d="M37.9996 15.9258C36.9364 15.9264 35.8775 16.0609 34.8479 16.3262C32.4454 16.8687 29.3196 17.7729 26.4909 17.2304C26.3806 17.9589 26.42 18.7023 26.6065 19.4152C26.7931 20.128 27.1229 20.7954 27.5759 21.3766C26.1014 23.5003 25.3126 26.0246 25.3154 28.6099V35.2491H50.6838V28.6099C50.6838 25.2459 49.3474 22.0196 46.9687 19.6409C44.5899 17.2621 41.3637 15.9258 37.9996 15.9258Z" stroke="#45413C" stroke-width="0.5" stroke-linecap="round" stroke-linejoin="round"/>
<path d="M52.0403 34.2804C51.9775 33.8061 51.7722 33.362 51.4517 33.0068C51.1311 32.6517 50.7103 32.4021 50.2448 32.2912L49.4828 32.0846C48.9212 31.926 48.4274 31.5872 48.0773 31.1204C47.7272 30.6536 47.5403 30.0847 47.5453 29.5012V26.8662C47.5438 26.3336 47.3673 25.8162 47.0429 25.3937C46.7184 24.9712 46.2641 24.6672 45.7498 24.5283C43.2872 25.5129 40.6515 25.9917 37.9998 25.9362C35.3482 25.9917 32.7125 25.5129 30.2498 24.5283C29.7332 24.6647 29.276 24.9678 28.949 25.3905C28.6221 25.8132 28.4437 26.3319 28.4415 26.8662V29.5271C28.4465 30.1105 28.2595 30.6795 27.9094 31.1462C27.5594 31.613 27.0655 31.9518 26.504 32.1104L25.7419 32.3171C25.2765 32.428 24.8557 32.6775 24.5351 33.0327C24.2146 33.3878 24.0093 33.8319 23.9465 34.3062C23.912 34.6332 23.9468 34.9638 24.0488 35.2764C24.1507 35.5891 24.3174 35.8767 24.5381 36.1205C24.7587 36.3643 25.0283 36.5588 25.3292 36.6913C25.6301 36.8238 25.9556 36.8914 26.2844 36.8896H26.4265C26.7288 39.7449 28.077 42.3874 30.2115 44.3078C32.346 46.2283 35.1157 47.2909 37.9869 47.2909C40.8582 47.2909 43.6279 46.2283 45.7624 44.3078C47.8969 42.3874 49.2451 39.7449 49.5473 36.8896H49.6894C50.0218 36.8937 50.3511 36.8268 50.6556 36.6936C50.9601 36.5603 51.2326 36.3637 51.4551 36.1168C51.6775 35.8699 51.8448 35.5783 51.9457 35.2617C52.0466 34.945 52.0788 34.6105 52.0403 34.2804Z" fill="#FFCEBF" stroke="#45413C" stroke-width="0.5" stroke-linecap="round" stroke-linejoin="round"/>
<path d="M30.9864 34.0083C30.9864 34.2051 31.0447 34.3973 31.154 34.5609C31.2633 34.7245 31.4187 34.8519 31.6004 34.9272C31.7821 35.0025 31.9821 35.0222 32.175 34.9838C32.368 34.9454 32.5452 34.8507 32.6843 34.7116C32.8234 34.5725 32.9181 34.3953 32.9565 34.2024C32.9948 34.0094 32.9752 33.8095 32.8999 33.6277C32.8246 33.446 32.6971 33.2907 32.5336 33.1814C32.37 33.0721 32.1777 33.0138 31.981 33.0138C31.8499 33.012 31.7198 33.0366 31.5983 33.0859C31.4769 33.1353 31.3666 33.2085 31.2739 33.3012C31.1811 33.3939 31.108 33.5042 31.0586 33.6257C31.0092 33.7471 30.9847 33.8773 30.9864 34.0083ZM45.0139 34.0083C45.0139 34.2051 44.9556 34.3973 44.8463 34.5609C44.737 34.7245 44.5817 34.8519 44.3999 34.9272C44.2182 35.0025 44.0182 35.0222 43.8253 34.9838C43.6324 34.9454 43.4551 34.8507 43.3161 34.7116C43.177 34.5725 43.0822 34.3953 43.0439 34.2024C43.0055 34.0094 43.0252 33.8095 43.1005 33.6277C43.1757 33.446 43.3032 33.2907 43.4668 33.1814C43.6303 33.0721 43.8226 33.0138 44.0193 33.0138C44.1504 33.012 44.2805 33.0366 44.402 33.0859C44.5234 33.1353 44.6338 33.2085 44.7265 33.3012C44.8192 33.3939 44.8924 33.5042 44.9417 33.6257C44.9911 33.7471 45.0157 33.8773 45.0139 34.0083Z" fill="#45413C" stroke="#45413C" stroke-width="0.5" stroke-linecap="round" stroke-linejoin="round"/>
<path d="M29.0361 38.2457C29.0361 38.4512 29.1722 38.6484 29.4145 38.7937C29.6567 38.9391 29.9852 39.0207 30.3278 39.0207C30.6704 39.0207 30.9989 38.9391 31.2411 38.7937C31.4834 38.6484 31.6195 38.4512 31.6195 38.2457C31.6195 38.0402 31.4834 37.843 31.2411 37.6977C30.9989 37.5524 30.6704 37.4707 30.3278 37.4707C29.9852 37.4707 29.6567 37.5524 29.4145 37.6977C29.1722 37.843 29.0361 38.0402 29.0361 38.2457ZM44.3811 38.2457C44.3811 38.4512 44.5172 38.6484 44.7595 38.7937C45.0017 38.9391 45.3302 39.0207 45.6728 39.0207C46.0154 39.0207 46.3439 38.9391 46.5861 38.7937C46.8284 38.6484 46.9645 38.4512 46.9645 38.2457C46.9645 38.0402 46.8284 37.843 46.5861 37.6977C46.3439 37.5524 46.0154 37.4707 45.6728 37.4707C45.3302 37.4707 45.0017 37.5524 44.7595 37.6977C44.5172 37.843 44.3811 38.0402 44.3811 38.2457Z" fill="#FFB59E"/>
<path d="M36.7857 43.8644C36.6975 43.8645 36.6102 43.8466 36.5292 43.8118C36.4482 43.7769 36.3752 43.7259 36.3147 43.6617C36.2542 43.5976 36.2075 43.5217 36.1774 43.4388C36.1473 43.356 36.1345 43.2678 36.1398 43.1798C36.1398 42.1594 36.5144 40.3252 37.9998 40.3252C39.4853 40.3252 39.8082 42.1594 39.8598 43.1798C39.8651 43.2678 39.8523 43.356 39.8223 43.4388C39.7922 43.5217 39.7454 43.5976 39.6849 43.6617C39.6244 43.7259 39.5514 43.7769 39.4704 43.8118C39.3894 43.8466 39.3022 43.8645 39.214 43.8644H36.7857Z" fill="#FF866E" stroke="#45413C" stroke-width="0.5" stroke-linecap="round" stroke-linejoin="round"/>
</svg>
